<?xml version="1.0" encoding="utf-8"?>
<!-- Generator: Adobe Illustrator 19.2.1, SVG Export Plug-In . SVG Version: 6.00 Build 0)  -->
<svg version="1.1" id="CA_banque_et_assurance" xmlns="http://www.w3.org/2000/svg" xmlns:xlink="http://www.w3.org/1999/xlink"
	 x="0px" y="0px" viewBox="0 0 283.7 77.1" style="enable-background:new 0 0 283.7 77.1;" xml:space="preserve">
<style type="text/css">
	.st0{fill:#00B1EB;}
	.st1{fill:#004D9A;}
</style>
<g>
	<g>
		<g>
			<g>
				<path class="st0" d="M24.7,2c0.1-0.1,0.3-0.2,0.4-0.2c0.2,0,0.4,0.2,0.4,0.4c0,0.1-0.1,0.3-0.2,0.4C19.9,9.3,16,17.1,16,27.9
					c0,10.8,3.9,18.4,9.2,25.1c0.1,0.1,0.2,0.3,0.2,0.4c0,0.2-0.1,0.4-0.4,0.4c-0.1,0-0.3-0.1-0.4-0.2L2,31.6
					c-1.1-1-1.9-2.1-1.9-3.7c0-1.6,0.7-2.8,1.9-3.7L24.7,2z"/>
				<path class="st1" d="M42.1,0.2c-8.9,0-12.4,12.7-12.4,27.8c0,15.1,3.5,27.6,12.4,27.6c5.3,0,9.9-3.1,9.9-5.7
					c0-0.6-0.2-1.1-0.7-1.6c-2.5-2.5-3.5-4.9-3.5-7.1c0-4.1,3.6-7.2,6.8-7.2c4.5,0,7.2,3.6,7.2,8.2c0,4.4-1.9,8-3.9,11
					c-0.1,0.1-0.1,0.3-0.1,0.4c0,0.2,0.1,0.4,0.3,0.4c0.1,0,0.3-0.1,0.4-0.2l22.7-22.1c1.1-1,1.9-2.1,1.9-3.7c0-1.6-0.7-2.8-1.9-3.7
					L58.6,2c-0.2-0.2-0.3-0.2-0.4-0.2c-0.2,0-0.3,0.2-0.3,0.4c0,0.1,0,0.2,0.1,0.4c2,2.9,3.9,6.6,3.9,11c0,4.6-2.7,8.2-7.2,8.2
					c-3.3,0-6.9-3.1-6.8-7.2c0-2.2,1-4.6,3.5-7.1C51.8,7,52,6.5,52,5.9C52,3.3,47.5,0.2,42.1,0.2"/>
			</g>
			<g>
				<path class="st1" d="M104,22.5c-1,0-2.2-0.3-3-0.7v-9.6c0-1.6,1.3-2.9,3.1-2.9c2.5,0,3.9,2.2,3.9,6.2
					C108,20.2,106.7,22.5,104,22.5z M103.9,25.3c5.3,0,8.1-3.6,8.1-10.3c0-5.4-2.5-8.6-6.8-8.6c-1.6,0-3.2,0.6-4.2,1.5V0.2h-4v23.5
					C98.5,24.6,101.5,25.3,103.9,25.3z"/>
				<path class="st1" d="M126.5,9.7c-0.6-0.3-1.7-0.4-2.6-0.4c-2.9,0-4.5,2.5-4.5,7.2c0,3.9,1.3,5.9,3.7,5.9c1.9,0,3.4-1.4,3.4-3.3
					V9.7z M130.5,21.3l0.3,3.4h-3.4l-0.2-1.9H127c-1,1.5-2.8,2.4-4.8,2.4c-4.4,0-6.7-3-6.7-8.6c0-6.5,3.2-10.2,9-10.2
					c1.7,0,4.3,0.5,6.1,1.3V21.3z"/>
				<path class="st1" d="M135.8,24.7V10L135.5,7h3.3l0.4,2.2c1.2-1.7,3.1-2.8,5.4-2.8c3.4,0,5.4,2,5.4,6.2v12.2h-4V13.5
					c0-2.3-0.4-4-2.6-4c-2.1,0-3.6,1.8-3.6,3.8v11.5H135.8z"/>
				<path class="st1" d="M169.2,32.1h-4v-8.4h-0.1c-1,0.8-2.4,1.5-4.2,1.5c-4.4,0-6.6-3-6.6-8.9c0-6.1,3.2-9.9,8.6-9.9
					c1.7,0,4.1,0.4,6.3,1.3V32.1z M165.2,9.7c-0.6-0.2-1.2-0.3-2.1-0.3c-3.1,0-4.8,2.9-4.8,6.4c0,3.1,0.2,6.5,3.5,6.5
					c2.1,0,3.4-1.8,3.4-3.1V9.7z"/>
				<path class="st1" d="M188.7,7v14.8l0.3,3h-3.4l-0.2-2.1h-0.1c-1.2,1.8-3.1,2.6-5.1,2.6c-3.8,0-5.6-2.1-5.6-6.2V7h4v11.3
					c0,2.3,0.4,4,2.8,4c1.9,0,3.5-1.8,3.5-3.6V7H188.7z"/>
				<path class="st1" d="M207,11.3c0,5.5-6.6,6.2-9.8,6.2c0.2,2.4,1.5,4.7,4.5,4.7c2,0,3.4-1.1,4.3-1.8l1.3,2.8c-0.6,0.5-2.8,2-6,2
					c-5.7,0-8.1-3.7-8.1-9c0-5.2,3-9.8,8.4-9.8C204.9,6.4,207,8.2,207,11.3z M201.3,9.2c-2.8,0-4.2,3-4.3,5.8c1.9,0,6.4-0.6,6.4-3.5
					C203.4,10.1,202.5,9.2,201.3,9.2z"/>
				<path class="st0" d="M283.4,41.4c0,5.5-6.6,6.2-9.8,6.2c0.2,2.4,1.5,4.7,4.5,4.7c2,0,3.4-1.1,4.3-1.8l1.3,2.8
					c-0.6,0.5-2.8,2-6,2c-5.7,0-8.1-3.7-8.1-9c0-5.2,3-9.8,8.4-9.8C281.3,36.5,283.4,38.3,283.4,41.4z M277.6,39.3
					c-2.8,0-4.2,3-4.3,5.8c1.9,0,6.4-0.6,6.4-3.5C279.7,40.2,278.8,39.3,277.6,39.3z"/>
				<path class="st0" d="M265.9,50.6l1.6,2.6c-1.4,1.1-3.4,2.1-6,2.1c-5.1,0-8-3.3-8-9.3c0-7.1,4.3-9.5,7.9-9.5
					c2.2,0,4.7,0.9,6.3,3.4l-2.7,2c-0.9-1.3-2.1-2.2-3.6-2.2c-2.3,0-4,2-4,6.2c0,3.8,1.3,6.3,4.5,6.3
					C263.3,52.2,264.5,51.9,265.9,50.6z"/>
				<path class="st0" d="M225.7,39.9c-0.6-0.3-1.7-0.4-2.6-0.4c-2.9,0-4.5,2.5-4.5,7.2c0,3.9,1.3,5.9,3.7,5.9c1.9,0,3.4-1.4,3.4-3.3
					V39.9z M229.7,51.4l0.3,3.4h-3.4l-0.2-1.9h-0.2c-1,1.5-2.8,2.4-4.8,2.4c-4.4,0-6.7-3-6.7-8.6c0-6.5,3.2-10.2,9-10.2
					c1.7,0,4.3,0.5,6.1,1.3V51.4z"/>
				<path class="st0" d="M235,54.8V40.1l-0.3-3.1h3.3l0.4,2.2c1.2-1.7,3.1-2.8,5.4-2.8c3.4,0,5.4,2,5.4,6.2v12.2h-4V43.6
					c0-2.3-0.4-4-2.6-4c-2.1,0-3.6,1.8-3.6,3.8v11.5H235z"/>
				<path class="st0" d="M207.2,54.8h-4V39.9l-0.3-2.9h3.2l0.4,2.6c0.8-2,2.5-3.1,4.3-3.1c1.1,0,2.1,0.2,2.8,0.7l-0.7,3.4
					c-0.8-0.4-1.6-0.7-2.5-0.7c-1.9,0-3.2,1.6-3.2,3.8V54.8z"/>
				<path class="st0" d="M197.8,37.1v14.8l0.3,3h-3.4l-0.2-2.1h-0.1c-1.2,1.8-3.1,2.6-5.1,2.6c-3.8,0-5.6-2.1-5.6-6.2V37.1h4v11.3
					c0,2.3,0.4,4,2.8,4c1.9,0,3.5-1.8,3.5-3.6V37.1H197.8z"/>
				<path class="st0" d="M152.4,50.6c1.2,0.9,3.2,1.9,5,1.9c1.6,0,2.9-0.7,2.9-2.5c0-1.6-1.4-2.1-3.2-2.7c-2.6-0.7-5.5-1.5-5.5-5.1
					c0-3.7,3-5.6,6.5-5.6c2.6,0,4.9,1.1,6.4,2.5l-2,2.5c-1.3-1.3-2.8-2.1-4.3-2.1c-1.4,0-2.7,0.7-2.7,2.2c0,1.7,1.6,2.2,3.3,2.7
					c2.6,0.8,5.5,1.8,5.5,5.3c0,3.7-2.8,5.7-6.7,5.7c-3,0-5.6-1.1-6.5-1.8L152.4,50.6z"/>
				<path class="st0" d="M167.9,50.6c1.2,0.9,3.2,1.9,5,1.9c1.6,0,2.9-0.7,2.9-2.5c0-1.6-1.4-2.1-3.2-2.7c-2.6-0.7-5.5-1.5-5.5-5.1
					c0-3.7,3-5.6,6.5-5.6c2.6,0,4.9,1.1,6.4,2.5l-2,2.5c-1.3-1.3-2.8-2.1-4.3-2.1c-1.4,0-2.7,0.7-2.7,2.2c0,1.7,1.6,2.2,3.3,2.7
					c2.6,0.8,5.5,1.8,5.5,5.3c0,3.7-2.8,5.7-6.7,5.7c-3,0-5.6-1.1-6.5-1.8L167.9,50.6z"/>
				<path class="st0" d="M143.5,39.9c-0.6-0.3-1.7-0.4-2.6-0.4c-2.9,0-4.5,2.5-4.5,7.2c0,3.9,1.3,5.9,3.7,5.9c1.9,0,3.4-1.4,3.4-3.3
					V39.9z M147.4,51.4l0.3,3.4h-3.4l-0.2-1.9h-0.2c-1,1.5-2.8,2.4-4.8,2.4c-4.4,0-6.7-3-6.7-8.6c0-6.5,3.2-10.2,9-10.2
					c1.7,0,4.3,0.5,6.1,1.3V51.4z"/>
				<path class="st0" d="M111,41.5c0,5.5-6.6,6.2-9.8,6.2c0.2,2.4,1.5,4.7,4.5,4.7c2,0,3.4-1.1,4.3-1.8l1.3,2.8c-0.6,0.5-2.8,2-6,2
					c-5.7,0-8.1-3.7-8.1-9c0-5.2,3-9.8,8.4-9.8C108.9,36.6,111,38.4,111,41.5z M105.3,39.4c-2.8,0-4.2,3-4.3,5.8
					c1.9,0,6.4-0.6,6.4-3.5C107.4,40.2,106.5,39.4,105.3,39.4z"/>
				<path class="st0" d="M118.7,31.7v5.3h4.8v3.1h-4.8v9.2c0,2.3,0.9,3,2.3,3c0.9,0,1.8-0.4,2.4-0.7l1.1,2.5
					c-1.1,0.8-2.9,1.3-4.5,1.3c-5.3,0-5.3-3.4-5.3-5.9V31.7H118.7z"/>
			</g>
		</g>
		<g>
			<path class="st1" d="M100.7,71.7l2.1-6.7h1.5l-3.1,8.7h-1.1L97,65h1.5L100.7,71.7z"/>
			<path class="st1" d="M105.3,69.3c0-0.6,0.1-1.2,0.3-1.8c0.2-0.5,0.4-1,0.8-1.4c0.3-0.4,0.8-0.7,1.2-0.9c0.5-0.2,1-0.3,1.6-0.3
				c0.6,0,1.2,0.1,1.7,0.3c0.5,0.2,0.9,0.5,1.2,0.9c0.3,0.4,0.6,0.9,0.8,1.4c0.2,0.5,0.3,1.1,0.3,1.8v0.2c0,0.6-0.1,1.2-0.3,1.8
				c-0.2,0.5-0.4,1-0.8,1.4c-0.3,0.4-0.8,0.7-1.2,0.9c-0.5,0.2-1,0.3-1.6,0.3c-0.6,0-1.2-0.1-1.6-0.3c-0.5-0.2-0.9-0.5-1.2-0.9
				c-0.3-0.4-0.6-0.9-0.8-1.4c-0.2-0.5-0.3-1.1-0.3-1.8V69.3z M106.8,69.4c0,0.4,0.1,0.8,0.2,1.2c0.1,0.4,0.3,0.7,0.5,1
				c0.2,0.3,0.5,0.5,0.8,0.7c0.3,0.2,0.7,0.3,1.1,0.3c0.4,0,0.8-0.1,1.1-0.3c0.3-0.2,0.6-0.4,0.8-0.7c0.2-0.3,0.4-0.6,0.5-1
				c0.1-0.4,0.2-0.8,0.2-1.2v-0.2c0-0.4-0.1-0.8-0.2-1.2c-0.1-0.4-0.3-0.7-0.5-1c-0.2-0.3-0.5-0.5-0.8-0.7c-0.3-0.2-0.7-0.3-1.1-0.3
				c-0.4,0-0.8,0.1-1.1,0.3c-0.3,0.2-0.6,0.4-0.8,0.7c-0.2,0.3-0.4,0.6-0.5,1c-0.1,0.4-0.2,0.8-0.2,1.2V69.4z"/>
			<path class="st1" d="M120.4,72.8c-0.3,0.3-0.6,0.6-1,0.8c-0.4,0.2-0.9,0.3-1.5,0.3c-0.4,0-0.8-0.1-1.2-0.2
				c-0.3-0.1-0.6-0.3-0.9-0.6c-0.3-0.3-0.4-0.6-0.6-1c-0.1-0.4-0.2-0.9-0.2-1.5V65h1.5v5.6c0,0.4,0,0.7,0.1,1
				c0.1,0.3,0.2,0.5,0.4,0.6c0.1,0.1,0.3,0.2,0.5,0.3c0.2,0.1,0.4,0.1,0.6,0.1c0.6,0,1.1-0.1,1.5-0.3c0.4-0.2,0.6-0.5,0.8-0.9V65
				h1.5v8.7h-1.4L120.4,72.8z"/>
			<path class="st1" d="M129.2,71.4c0-0.2,0-0.3-0.1-0.5c0-0.1-0.1-0.3-0.3-0.4c-0.1-0.1-0.3-0.2-0.6-0.3c-0.3-0.1-0.6-0.2-1-0.3
				c-0.5-0.1-0.9-0.2-1.3-0.4c-0.4-0.1-0.7-0.3-1-0.5c-0.3-0.2-0.5-0.4-0.6-0.7c-0.1-0.3-0.2-0.6-0.2-0.9c0-0.3,0.1-0.7,0.2-1
				c0.2-0.3,0.4-0.6,0.6-0.8c0.3-0.2,0.6-0.4,1-0.6c0.4-0.1,0.8-0.2,1.3-0.2c0.5,0,1,0.1,1.4,0.2c0.4,0.1,0.8,0.3,1,0.6
				c0.3,0.2,0.5,0.5,0.7,0.9c0.2,0.3,0.2,0.7,0.2,1.1h-1.5c0-0.2,0-0.4-0.1-0.5c-0.1-0.2-0.2-0.3-0.4-0.5c-0.2-0.1-0.3-0.3-0.6-0.3
				c-0.2-0.1-0.5-0.1-0.8-0.1c-0.3,0-0.6,0-0.8,0.1c-0.2,0.1-0.4,0.2-0.5,0.3c-0.1,0.1-0.2,0.3-0.3,0.4c-0.1,0.2-0.1,0.3-0.1,0.5
				c0,0.2,0,0.3,0.1,0.4c0.1,0.1,0.2,0.2,0.3,0.3c0.2,0.1,0.4,0.2,0.6,0.3c0.3,0.1,0.6,0.2,1,0.3c0.5,0.1,1,0.3,1.4,0.4
				c0.4,0.2,0.7,0.3,1,0.5c0.3,0.2,0.4,0.4,0.6,0.7c0.1,0.3,0.2,0.6,0.2,0.9c0,0.4-0.1,0.7-0.2,1c-0.2,0.3-0.4,0.6-0.7,0.8
				c-0.3,0.2-0.6,0.4-1.1,0.5c-0.4,0.1-0.9,0.2-1.4,0.2c-0.6,0-1.1-0.1-1.5-0.2c-0.4-0.2-0.8-0.4-1.1-0.6c-0.3-0.3-0.5-0.6-0.7-0.9
				c-0.2-0.3-0.2-0.7-0.2-1h1.5c0,0.3,0.1,0.6,0.2,0.8c0.1,0.2,0.3,0.4,0.5,0.5c0.2,0.1,0.4,0.2,0.6,0.3c0.2,0.1,0.5,0.1,0.7,0.1
				c0.3,0,0.6,0,0.8-0.1c0.2-0.1,0.4-0.2,0.6-0.3c0.2-0.1,0.3-0.2,0.4-0.4C129.1,71.7,129.2,71.6,129.2,71.4z"/>
			<path class="st1" d="M133.9,73.1c0,0.2,0,0.5-0.1,0.8c-0.1,0.3-0.2,0.5-0.3,0.8c-0.1,0.3-0.3,0.5-0.4,0.7
				c-0.2,0.2-0.4,0.4-0.6,0.6l-0.8-0.6c0.3-0.4,0.4-0.7,0.6-1.1c0.1-0.4,0.2-0.8,0.2-1.2v-1.2h1.5V73.1z"/>
			<path class="st1" d="M141.9,62.9V65h1.6v1.1h-1.6v5.4c0,0.2,0,0.4,0.1,0.5c0.1,0.1,0.1,0.2,0.2,0.3c0.1,0.1,0.2,0.1,0.3,0.1
				c0.1,0,0.2,0,0.4,0c0.1,0,0.3,0,0.4,0c0.1,0,0.2,0,0.3-0.1v1.2c-0.1,0-0.3,0.1-0.5,0.1c-0.2,0-0.4,0.1-0.7,0.1
				c-0.3,0-0.5,0-0.8-0.1c-0.2-0.1-0.5-0.2-0.6-0.4c-0.2-0.2-0.3-0.4-0.4-0.7c-0.1-0.3-0.2-0.7-0.2-1.1v-5.4h-1.6V65h1.6v-2.1H141.9
				z"/>
			<path class="st1" d="M144.7,69.3c0-0.6,0.1-1.2,0.3-1.8c0.2-0.5,0.4-1,0.8-1.4c0.3-0.4,0.8-0.7,1.2-0.9c0.5-0.2,1-0.3,1.6-0.3
				c0.6,0,1.2,0.1,1.7,0.3c0.5,0.2,0.9,0.5,1.2,0.9c0.3,0.4,0.6,0.9,0.8,1.4c0.2,0.5,0.3,1.1,0.3,1.8v0.2c0,0.6-0.1,1.2-0.3,1.8
				c-0.2,0.5-0.4,1-0.8,1.4c-0.3,0.4-0.8,0.7-1.2,0.9c-0.5,0.2-1,0.3-1.6,0.3c-0.6,0-1.2-0.1-1.6-0.3c-0.5-0.2-0.9-0.5-1.2-0.9
				c-0.3-0.4-0.6-0.9-0.8-1.4c-0.2-0.5-0.3-1.1-0.3-1.8V69.3z M146.2,69.4c0,0.4,0,0.8,0.2,1.2c0.1,0.4,0.3,0.7,0.5,1
				c0.2,0.3,0.5,0.5,0.8,0.7c0.3,0.2,0.7,0.3,1.1,0.3c0.4,0,0.8-0.1,1.1-0.3c0.3-0.2,0.6-0.4,0.8-0.7c0.2-0.3,0.4-0.6,0.5-1
				c0.1-0.4,0.2-0.8,0.2-1.2v-0.2c0-0.4-0.1-0.8-0.2-1.2c-0.1-0.4-0.3-0.7-0.5-1c-0.2-0.3-0.5-0.5-0.8-0.7c-0.3-0.2-0.7-0.3-1.1-0.3
				c-0.4,0-0.8,0.1-1.1,0.3c-0.3,0.2-0.6,0.4-0.8,0.7c-0.2,0.3-0.4,0.6-0.5,1c-0.1,0.4-0.2,0.8-0.2,1.2V69.4z"/>
			<path class="st1" d="M159.8,72.8c-0.3,0.3-0.6,0.6-1,0.8c-0.4,0.2-0.9,0.3-1.5,0.3c-0.4,0-0.8-0.1-1.2-0.2
				c-0.3-0.1-0.6-0.3-0.9-0.6c-0.3-0.3-0.4-0.6-0.6-1c-0.1-0.4-0.2-0.9-0.2-1.5V65h1.5v5.6c0,0.4,0,0.7,0.1,1
				c0.1,0.3,0.2,0.5,0.4,0.6c0.1,0.1,0.3,0.2,0.5,0.3c0.2,0.1,0.4,0.1,0.6,0.1c0.6,0,1.1-0.1,1.5-0.3c0.4-0.2,0.6-0.5,0.8-0.9V65
				h1.5v8.7h-1.4L159.8,72.8z"/>
			<path class="st1" d="M165.5,62.9V65h1.6v1.1h-1.6v5.4c0,0.2,0,0.4,0.1,0.5c0.1,0.1,0.1,0.2,0.2,0.3c0.1,0.1,0.2,0.1,0.3,0.1
				c0.1,0,0.2,0,0.4,0c0.1,0,0.3,0,0.4,0c0.1,0,0.2,0,0.3-0.1v1.2c-0.1,0-0.3,0.1-0.5,0.1c-0.2,0-0.4,0.1-0.7,0.1
				c-0.3,0-0.5,0-0.8-0.1c-0.2-0.1-0.5-0.2-0.6-0.4c-0.2-0.2-0.3-0.4-0.4-0.7c-0.1-0.3-0.2-0.7-0.2-1.1v-5.4h-1.6V65h1.6v-2.1H165.5
				z"/>
			<path class="st1" d="M178,71.4c0-0.2,0-0.3-0.1-0.5c0-0.1-0.1-0.3-0.3-0.4c-0.1-0.1-0.3-0.2-0.6-0.3c-0.3-0.1-0.6-0.2-1-0.3
				c-0.5-0.1-0.9-0.2-1.3-0.4c-0.4-0.1-0.7-0.3-1-0.5c-0.3-0.2-0.5-0.4-0.6-0.7c-0.1-0.3-0.2-0.6-0.2-0.9c0-0.3,0.1-0.7,0.2-1
				c0.2-0.3,0.4-0.6,0.6-0.8c0.3-0.2,0.6-0.4,1-0.6c0.4-0.1,0.8-0.2,1.3-0.2c0.5,0,1,0.1,1.4,0.2c0.4,0.1,0.8,0.3,1,0.6
				c0.3,0.2,0.5,0.5,0.7,0.9c0.2,0.3,0.2,0.7,0.2,1.1h-1.5c0-0.2,0-0.4-0.1-0.5c-0.1-0.2-0.2-0.3-0.4-0.5c-0.2-0.1-0.3-0.3-0.6-0.3
				c-0.2-0.1-0.5-0.1-0.8-0.1c-0.3,0-0.6,0-0.8,0.1c-0.2,0.1-0.4,0.2-0.5,0.3c-0.1,0.1-0.2,0.3-0.3,0.4c-0.1,0.2-0.1,0.3-0.1,0.5
				c0,0.2,0,0.3,0.1,0.4c0.1,0.1,0.2,0.2,0.3,0.3c0.2,0.1,0.4,0.2,0.6,0.3c0.3,0.1,0.6,0.2,1,0.3c0.5,0.1,1,0.3,1.4,0.4
				c0.4,0.2,0.7,0.3,1,0.5c0.3,0.2,0.4,0.4,0.6,0.7c0.1,0.3,0.2,0.6,0.2,0.9c0,0.4-0.1,0.7-0.2,1c-0.2,0.3-0.4,0.6-0.7,0.8
				c-0.3,0.2-0.6,0.4-1.1,0.5c-0.4,0.1-0.9,0.2-1.4,0.2c-0.6,0-1.1-0.1-1.5-0.2c-0.4-0.2-0.8-0.4-1.1-0.6c-0.3-0.3-0.5-0.6-0.7-0.9
				c-0.2-0.3-0.2-0.7-0.2-1h1.5c0,0.3,0.1,0.6,0.2,0.8c0.1,0.2,0.3,0.4,0.5,0.5c0.2,0.1,0.4,0.2,0.7,0.3c0.2,0.1,0.5,0.1,0.7,0.1
				c0.3,0,0.6,0,0.8-0.1c0.2-0.1,0.4-0.2,0.6-0.3c0.2-0.1,0.3-0.2,0.4-0.4C177.9,71.7,178,71.6,178,71.4z"/>
			<path class="st1" d="M181.4,62.7c0-0.2,0.1-0.4,0.2-0.6c0.1-0.2,0.4-0.2,0.7-0.2c0.3,0,0.5,0.1,0.7,0.2c0.1,0.2,0.2,0.4,0.2,0.6
				c0,0.2-0.1,0.4-0.2,0.6c-0.1,0.2-0.4,0.2-0.7,0.2c-0.3,0-0.5-0.1-0.7-0.2C181.5,63.2,181.4,63,181.4,62.7z M183,73.7h-1.5V65h1.5
				V73.7z"/>
			<path class="st1" d="M186.8,65l0,1c0.3-0.4,0.7-0.6,1.1-0.8c0.4-0.2,0.9-0.3,1.5-0.3c0.6,0,1.1,0.1,1.5,0.3
				c0.4,0.2,0.8,0.6,1,1.1c0.3-0.4,0.7-0.8,1.1-1c0.5-0.3,1-0.4,1.6-0.4c0.5,0,0.9,0.1,1.2,0.2c0.4,0.1,0.7,0.3,0.9,0.6
				c0.2,0.3,0.4,0.6,0.6,1c0.1,0.4,0.2,0.9,0.2,1.4v5.7H196V68c0-0.4,0-0.7-0.1-0.9c-0.1-0.2-0.2-0.4-0.4-0.6
				c-0.2-0.1-0.4-0.2-0.6-0.3c-0.2-0.1-0.5-0.1-0.8-0.1c-0.3,0-0.6,0-0.8,0.1c-0.2,0.1-0.4,0.2-0.6,0.4c-0.2,0.2-0.3,0.4-0.4,0.6
				c-0.1,0.2-0.2,0.5-0.2,0.7v5.8h-1.5V68c0-0.3,0-0.6-0.1-0.9c-0.1-0.2-0.2-0.4-0.4-0.6c-0.2-0.1-0.4-0.3-0.6-0.3
				c-0.2-0.1-0.5-0.1-0.8-0.1c-0.5,0-1,0.1-1.3,0.3c-0.3,0.2-0.6,0.5-0.7,0.9v6.3h-1.5V65H186.8z"/>
			<path class="st1" d="M207.1,69.4c0,0.6-0.1,1.2-0.2,1.8c-0.1,0.5-0.4,1-0.7,1.4c-0.3,0.4-0.6,0.7-1.1,0.9
				c-0.4,0.2-0.9,0.3-1.4,0.3c-0.5,0-1-0.1-1.4-0.3c-0.4-0.2-0.8-0.4-1.1-0.7V77h-1.5V65h1.4l0.1,1c0.3-0.4,0.6-0.6,1.1-0.8
				c0.4-0.2,0.9-0.3,1.5-0.3c0.5,0,1,0.1,1.4,0.3c0.4,0.2,0.8,0.5,1.1,0.9c0.3,0.4,0.5,0.9,0.7,1.4c0.1,0.5,0.2,1.1,0.2,1.8V69.4z
				 M205.6,69.3c0-0.4,0-0.8-0.1-1.2c-0.1-0.4-0.2-0.7-0.4-1c-0.2-0.3-0.4-0.5-0.7-0.7c-0.3-0.2-0.6-0.3-1.1-0.3
				c-0.3,0-0.5,0-0.7,0.1c-0.2,0.1-0.4,0.1-0.6,0.2c-0.2,0.1-0.3,0.2-0.4,0.4c-0.1,0.1-0.2,0.3-0.3,0.5v4.1c0.1,0.2,0.2,0.3,0.3,0.5
				c0.1,0.1,0.3,0.3,0.4,0.4c0.2,0.1,0.4,0.2,0.6,0.2c0.2,0.1,0.4,0.1,0.7,0.1c0.4,0,0.7-0.1,1-0.3c0.3-0.2,0.5-0.4,0.7-0.7
				c0.2-0.3,0.3-0.6,0.4-1c0.1-0.4,0.1-0.8,0.1-1.2V69.3z"/>
			<path class="st1" d="M210.6,73.7h-1.5V61.4h1.5V73.7z"/>
			<path class="st1" d="M216.6,73.9c-0.6,0-1.2-0.1-1.6-0.3c-0.5-0.2-0.9-0.5-1.3-0.9c-0.3-0.4-0.6-0.8-0.8-1.3
				c-0.2-0.5-0.3-1.1-0.3-1.7v-0.3c0-0.7,0.1-1.3,0.3-1.9c0.2-0.6,0.5-1,0.8-1.4c0.4-0.4,0.8-0.7,1.2-0.9c0.5-0.2,0.9-0.3,1.4-0.3
				c0.6,0,1.2,0.1,1.6,0.3c0.4,0.2,0.8,0.5,1.1,0.9c0.3,0.4,0.5,0.8,0.6,1.3c0.1,0.5,0.2,1.1,0.2,1.7v0.7h-5.9
				c0,0.4,0.1,0.8,0.2,1.1c0.1,0.3,0.3,0.6,0.5,0.9c0.2,0.3,0.5,0.5,0.8,0.6c0.3,0.2,0.7,0.2,1.1,0.2c0.5,0,1-0.1,1.3-0.3
				c0.4-0.2,0.7-0.5,1-0.9l0.9,0.7c-0.1,0.2-0.3,0.4-0.5,0.6c-0.2,0.2-0.4,0.4-0.7,0.5c-0.3,0.2-0.6,0.3-0.9,0.4
				C217.4,73.8,217,73.9,216.6,73.9z M216.4,66.1c-0.3,0-0.6,0.1-0.8,0.2c-0.3,0.1-0.5,0.3-0.7,0.5c-0.2,0.2-0.4,0.5-0.5,0.8
				c-0.1,0.3-0.2,0.7-0.3,1.1h4.3v-0.1c0-0.3-0.1-0.6-0.1-0.9c-0.1-0.3-0.2-0.5-0.4-0.8c-0.2-0.2-0.4-0.4-0.6-0.5
				C217.1,66.1,216.8,66.1,216.4,66.1z"/>
			<path class="st1" d="M223.1,65l0,1c0.3-0.4,0.7-0.6,1.1-0.8c0.4-0.2,0.9-0.3,1.5-0.3c0.6,0,1.1,0.1,1.5,0.3
				c0.4,0.2,0.8,0.6,1,1.1c0.3-0.4,0.7-0.8,1.1-1c0.5-0.3,1-0.4,1.6-0.4c0.5,0,0.9,0.1,1.2,0.2c0.4,0.1,0.7,0.3,0.9,0.6
				c0.2,0.3,0.4,0.6,0.6,1c0.1,0.4,0.2,0.9,0.2,1.4v5.7h-1.5V68c0-0.4,0-0.7-0.1-0.9c-0.1-0.2-0.2-0.4-0.4-0.6
				c-0.2-0.1-0.4-0.2-0.6-0.3c-0.2-0.1-0.5-0.1-0.8-0.1c-0.3,0-0.6,0-0.8,0.1c-0.2,0.1-0.4,0.2-0.6,0.4c-0.2,0.2-0.3,0.4-0.4,0.6
				c-0.1,0.2-0.2,0.5-0.2,0.7v5.8H227V68c0-0.3,0-0.6-0.1-0.9c-0.1-0.2-0.2-0.4-0.4-0.6c-0.2-0.1-0.4-0.3-0.6-0.3
				c-0.2-0.1-0.5-0.1-0.8-0.1c-0.5,0-1,0.1-1.3,0.3c-0.3,0.2-0.6,0.5-0.7,0.9v6.3h-1.5V65H223.1z"/>
			<path class="st1" d="M239.7,73.9c-0.6,0-1.2-0.1-1.6-0.3c-0.5-0.2-0.9-0.5-1.3-0.9c-0.3-0.4-0.6-0.8-0.8-1.3
				c-0.2-0.5-0.3-1.1-0.3-1.7v-0.3c0-0.7,0.1-1.3,0.3-1.9c0.2-0.6,0.5-1,0.8-1.4c0.4-0.4,0.8-0.7,1.2-0.9c0.5-0.2,0.9-0.3,1.4-0.3
				c0.6,0,1.2,0.1,1.6,0.3c0.4,0.2,0.8,0.5,1.1,0.9c0.3,0.4,0.5,0.8,0.6,1.3c0.1,0.5,0.2,1.1,0.2,1.7v0.7h-5.9
				c0,0.4,0.1,0.8,0.2,1.1c0.1,0.3,0.3,0.6,0.5,0.9c0.2,0.3,0.5,0.5,0.8,0.6c0.3,0.2,0.7,0.2,1.1,0.2c0.5,0,1-0.1,1.3-0.3
				c0.4-0.2,0.7-0.5,1-0.9l0.9,0.7c-0.1,0.2-0.3,0.4-0.5,0.6c-0.2,0.2-0.4,0.4-0.7,0.5c-0.3,0.2-0.6,0.3-0.9,0.4
				C240.5,73.8,240.1,73.9,239.7,73.9z M239.5,66.1c-0.3,0-0.6,0.1-0.8,0.2c-0.3,0.1-0.5,0.3-0.7,0.5c-0.2,0.2-0.4,0.5-0.5,0.8
				c-0.1,0.3-0.2,0.7-0.3,1.1h4.3v-0.1c0-0.3-0.1-0.6-0.1-0.9c-0.1-0.3-0.2-0.5-0.4-0.8c-0.2-0.2-0.4-0.4-0.6-0.5
				C240.2,66.1,239.9,66.1,239.5,66.1z"/>
			<path class="st1" d="M246.2,65l0,1.1c0.3-0.4,0.7-0.7,1.1-0.9c0.4-0.2,0.9-0.3,1.5-0.3c0.4,0,0.8,0.1,1.1,0.2
				c0.3,0.1,0.6,0.3,0.9,0.6c0.2,0.3,0.4,0.6,0.6,1c0.1,0.4,0.2,0.9,0.2,1.4v5.7h-1.5V68c0-0.3,0-0.6-0.1-0.9
				c-0.1-0.2-0.2-0.4-0.3-0.6c-0.1-0.1-0.3-0.3-0.5-0.3c-0.2-0.1-0.5-0.1-0.8-0.1c-0.5,0-0.9,0.1-1.3,0.4c-0.4,0.3-0.6,0.6-0.8,1
				v6.2h-1.5V65H246.2z"/>
			<path class="st1" d="M255.8,62.9V65h1.6v1.1h-1.6v5.4c0,0.2,0,0.4,0.1,0.5c0.1,0.1,0.1,0.2,0.2,0.3c0.1,0.1,0.2,0.1,0.3,0.1
				c0.1,0,0.2,0,0.4,0c0.1,0,0.3,0,0.4,0c0.1,0,0.2,0,0.3-0.1v1.2c-0.1,0-0.3,0.1-0.5,0.1c-0.2,0-0.4,0.1-0.7,0.1
				c-0.3,0-0.5,0-0.8-0.1c-0.2-0.1-0.5-0.2-0.6-0.4c-0.2-0.2-0.3-0.4-0.4-0.7c-0.1-0.3-0.2-0.7-0.2-1.1v-5.4h-1.6V65h1.6v-2.1H255.8
				z"/>
		</g>
	</g>
</g>
</svg>
